<svg width="89" height="30" viewBox="0 0 89 30" fill="none" xmlns="http://www.w3.org/2000/svg">
<rect y="6" width="18" height="18" rx="4" fill="#B0B0B0"/>
<path d="M27.776 23V5.48H32.24V23H27.776ZM31.76 23V19.112H38.864V23H31.76ZM47.4731 23.48C46.3051 23.48 45.2651 23.304 44.3531 22.952C43.4411 22.6 42.6651 22.112 42.0251 21.488C41.4011 20.864 40.9211 20.144 40.5851 19.328C40.2651 18.512 40.1051 17.64 40.1051 16.712V16.136C40.1051 15.176 40.2731 14.28 40.6091 13.448C40.9611 12.616 41.4571 11.888 42.0971 11.264C42.7371 10.64 43.5131 10.152 44.4251 9.8C45.3371 9.448 46.3531 9.272 47.4731 9.272C48.6091 9.272 49.6251 9.448 50.5211 9.8C51.4331 10.152 52.2091 10.64 52.8491 11.264C53.4891 11.888 53.9771 12.616 54.3131 13.448C54.6651 14.28 54.8411 15.176 54.8411 16.136V16.712C54.8411 17.64 54.6731 18.512 54.3371 19.328C54.0171 20.144 53.5371 20.864 52.8971 21.488C52.2731 22.112 51.5051 22.6 50.5931 22.952C49.6811 23.304 48.6411 23.48 47.4731 23.48ZM47.4731 19.832C48.1451 19.832 48.6971 19.688 49.1291 19.4C49.5771 19.112 49.9131 18.712 50.1371 18.2C50.3611 17.672 50.4731 17.08 50.4731 16.424C50.4731 15.736 50.3531 15.136 50.1131 14.624C49.8891 14.096 49.5531 13.68 49.1051 13.376C48.6571 13.072 48.1131 12.92 47.4731 12.92C46.8331 12.92 46.2891 13.072 45.8411 13.376C45.3931 13.68 45.0491 14.096 44.8091 14.624C44.5851 15.136 44.4731 15.736 44.4731 16.424C44.4731 17.08 44.5851 17.672 44.8091 18.2C45.0331 18.712 45.3691 19.112 45.8171 19.4C46.2651 19.688 46.8171 19.832 47.4731 19.832ZM62.5364 28.304C61.8804 28.304 61.2004 28.28 60.4964 28.232C59.8084 28.184 59.1844 28.12 58.6244 28.04V24.392C59.1844 24.456 59.8084 24.512 60.4964 24.56C61.1844 24.624 61.8164 24.656 62.3924 24.656C63.3844 24.656 64.1924 24.552 64.8164 24.344C65.4564 24.136 65.9284 23.816 66.2324 23.384C66.5364 22.952 66.6884 22.4 66.6884 21.728V19.04L67.3604 17.6C67.3284 18.72 67.1124 19.696 66.7124 20.528C66.3124 21.344 65.7364 21.976 64.9844 22.424C64.2484 22.872 63.3524 23.096 62.2964 23.096C61.4004 23.096 60.5924 22.936 59.8724 22.616C59.1524 22.296 58.5364 21.848 58.0244 21.272C57.5284 20.68 57.1444 19.984 56.8724 19.184C56.6004 18.384 56.4644 17.512 56.4644 16.568V15.992C56.4644 15.048 56.6084 14.176 56.8964 13.376C57.1844 12.56 57.6004 11.856 58.1444 11.264C58.6884 10.656 59.3284 10.192 60.0644 9.872C60.8164 9.536 61.6484 9.368 62.5604 9.368C63.6164 9.368 64.5284 9.608 65.2964 10.088C66.0644 10.552 66.6644 11.232 67.0964 12.128C67.5284 13.024 67.7604 14.112 67.7924 15.392L67.3124 15.56V9.752H70.7684V21.44C70.7684 23.072 70.4644 24.392 69.8564 25.4C69.2484 26.408 68.3284 27.144 67.0964 27.608C65.8804 28.072 64.3604 28.304 62.5364 28.304ZM63.7604 19.496C64.2884 19.496 64.7604 19.376 65.1764 19.136C65.6084 18.896 65.9524 18.552 66.2084 18.104C66.4644 17.64 66.5924 17.088 66.5924 16.448V15.872C66.5924 15.248 66.4564 14.72 66.1844 14.288C65.9284 13.856 65.5844 13.528 65.1524 13.304C64.7204 13.08 64.2564 12.968 63.7604 12.968C63.1844 12.968 62.6724 13.104 62.2244 13.376C61.7924 13.648 61.4484 14.032 61.1924 14.528C60.9524 15.024 60.8324 15.608 60.8324 16.28C60.8324 16.952 60.9524 17.528 61.1924 18.008C61.4484 18.488 61.7924 18.856 62.2244 19.112C62.6724 19.368 63.1844 19.496 63.7604 19.496ZM80.4028 23.48C79.2348 23.48 78.1948 23.304 77.2828 22.952C76.3708 22.6 75.5948 22.112 74.9548 21.488C74.3308 20.864 73.8508 20.144 73.5148 19.328C73.1948 18.512 73.0348 17.64 73.0348 16.712V16.136C73.0348 15.176 73.2028 14.28 73.5388 13.448C73.8908 12.616 74.3868 11.888 75.0268 11.264C75.6668 10.64 76.4428 10.152 77.3548 9.8C78.2668 9.448 79.2828 9.272 80.4028 9.272C81.5388 9.272 82.5548 9.448 83.4508 9.8C84.3628 10.152 85.1388 10.64 85.7787 11.264C86.4188 11.888 86.9068 12.616 87.2428 13.448C87.5948 14.28 87.7708 15.176 87.7708 16.136V16.712C87.7708 17.64 87.6028 18.512 87.2668 19.328C86.9468 20.144 86.4668 20.864 85.8268 21.488C85.2028 22.112 84.4348 22.6 83.5228 22.952C82.6108 23.304 81.5708 23.48 80.4028 23.48ZM80.4028 19.832C81.0748 19.832 81.6268 19.688 82.0588 19.4C82.5068 19.112 82.8428 18.712 83.0668 18.2C83.2908 17.672 83.4028 17.08 83.4028 16.424C83.4028 15.736 83.2828 15.136 83.0428 14.624C82.8188 14.096 82.4828 13.68 82.0348 13.376C81.5868 13.072 81.0428 12.92 80.4028 12.92C79.7628 12.92 79.2188 13.072 78.7708 13.376C78.3228 13.68 77.9788 14.096 77.7388 14.624C77.5148 15.136 77.4028 15.736 77.4028 16.424C77.4028 17.08 77.5148 17.672 77.7388 18.2C77.9628 18.712 78.2988 19.112 78.7468 19.4C79.1948 19.688 79.7468 19.832 80.4028 19.832Z" fill="white"/>
</svg>
